<svg width="143" height="143" viewBox="0 0 143 143" fill="none" xmlns="http://www.w3.org/2000/svg">
<g clip-path="url(#clip0_302_180)">
<path d="M36.7331 37.0952L43.6223 35.8014L47.5696 45.222L46.1699 46.1824L39.9212 48.4098L37.0665 46.2492L36.7331 37.0952Z" fill="#A0222A"/>
<path d="M30.4411 32.2582L36.7331 37.0952L43.6223 35.8014L51.4408 25.8604L30.4411 32.2582Z" fill="#120D0D"/>
<path d="M42.8286 58.3151L29.2046 49.1258L30.4411 32.2582L36.7331 37.0952L37.0665 46.2492L39.9212 48.4098L42.8286 58.3151Z" fill="#E7E4E5"/>
<path d="M59.4249 55.1672L42.8286 58.3151L39.9212 48.4098L46.1699 46.1824L59.4249 55.1672Z" fill="#E7E4E5"/>
<path d="M47.5696 45.222L65.3045 52.7352L59.4249 55.1672L46.1699 46.1824L47.5696 45.222Z" fill="#A0222A"/>
<path d="M51.4408 25.8604L70.292 34.6673L70.964 45.6485L65.3045 52.7352L47.5696 45.222L43.6223 35.8014L51.4408 25.8604Z" fill="#E7E4E5"/>
<path d="M10.2796 34.8771L17.0699 26.9414L23.7377 31.8226L21.5642 41.3234L12.0804 41.0425L10.2796 34.8771Z" fill="#E7E4E5"/>
<path d="M29.7066 42.2729L30.4411 32.2582L23.7377 31.8226L21.5642 41.3234L29.7066 42.2729Z" fill="#A0222A"/>
<path d="M21.7147 21.5394L30.486 23.989L51.4408 25.8604L30.4411 32.2582L23.7377 31.8226L17.0699 26.9414L21.7147 21.5394Z" fill="#E7E4E5"/>
<path d="M26.4016 16.0354L33.5552 17.034L30.486 23.989L21.7147 21.5394L26.4016 16.0354Z" fill="#A0222A"/>
<path d="M51.0435 5.54136L59.457 11.2067L33.5552 17.034L26.4016 16.0354L51.0435 5.54136Z" fill="#E7E4E5"/>
<path d="M65.2813 4.6935L74.0203 11.8702L59.457 11.2067L51.0435 5.54136L65.2813 4.6935Z" fill="#E7E4E5"/>
<path d="M72.1557 22.7313L61.8986 19.8297L59.457 11.2067L74.0203 11.8702L72.1557 22.7313Z" fill="#A0222A"/>
<path d="M92.3849 37.1607L87.3982 38.2637L72.1557 22.7313L74.0203 11.8702L92.3849 37.1607Z" fill="#E7E4E5"/>
<path d="M81.2691 41.7822L70.292 34.6673L72.1557 22.7313L87.3982 38.2637L81.2691 41.7822Z" fill="#A0222A"/>
<path d="M99.9165 48.1384L94.1864 47.3143L87.3982 38.2637L92.3849 37.1607L99.9165 48.1384Z" fill="#120D0D"/>
<path d="M81.2691 41.7822L87.3982 38.2637L94.1864 47.3143L89.4159 49.4659L81.2691 41.7822Z" fill="#E7E4E5"/>
<path d="M70.964 45.6485L89.4159 49.4659L81.2691 41.7822L70.292 34.6673L70.964 45.6485Z" fill="#120D0D"/>
<path d="M115.48 70.1926L94.1864 47.3143L99.9165 48.1384L115.48 70.1926Z" fill="#A0222A"/>
<path d="M65.3045 52.7352L74.9236 56.0539L89.4159 49.4659L70.964 45.6485L65.3045 52.7352Z" fill="#A0222A"/>
<path d="M90.7642 58.839L78.1325 61.0977L74.9236 56.0539L89.4159 49.4659L90.7642 58.839Z" fill="#E7E4E5"/>
<path d="M94.7417 61.4193L90.7642 58.839L89.4159 49.4659L94.1864 47.3143L103.535 57.5995L94.7417 61.4193Z" fill="#120D0D"/>
<path d="M12.7296 43.2655L12.0804 41.0425L29.7066 42.2729L29.2046 49.1258L42.8286 58.3151L29.1184 59.3685L12.7296 43.2655Z" fill="#120D0D"/>
<path d="M25.2116 65.5961L20.5228 69.9572L13.0067 44.2196L29.1184 59.3685L25.2116 65.5961Z" fill="#A0222A"/>
<path d="M37.679 72.1462L20.5228 69.9572L25.2116 65.5961L37.679 72.1462Z" fill="#E7E4E5"/>
<path d="M48.2097 67.7819L37.679 72.1462L25.2116 65.5961L29.1184 59.3685L42.8286 58.3151L48.2097 67.7819Z" fill="#E7E4E5"/>
<path d="M78.1325 61.0977L48.2097 67.7819L42.8286 58.3151L59.4249 55.1672L65.3045 52.7352L74.9236 56.0539L78.1325 61.0977Z" fill="#120D0D"/>
<path d="M61.8986 19.8297L59.457 11.2067L33.5552 17.034L30.486 23.989L51.4408 25.8604L70.292 34.6673L72.1557 22.7313L61.8986 19.8297Z" fill="#120D0D"/>
<path d="M78.1325 61.0977L90.7642 58.839L94.7417 61.4193L82.6175 62.6341L78.1325 61.0977Z" fill="#A0222A"/>
<path d="M97.1235 64.044L93.2353 67.4417L82.6175 62.6341L94.7417 61.4193L97.1235 64.044Z" fill="#E7E4E5"/>
<path d="M105.428 59.3923L97.1235 64.044L94.7417 61.4193L103.535 57.5995L105.428 59.3923Z" fill="#E7E4E5"/>
<path d="M97.9103 64.9208L95.424 70.3018L93.2353 67.4417L97.1235 64.044L97.9103 64.9208Z" fill="#A0222A"/>
<path d="M108.392 62.5788L97.9103 64.9208L97.1235 64.044L105.428 59.3923L108.392 62.5788Z" fill="#E7E4E5"/>
<path d="M100.872 67.237L97.2698 72.7153L95.424 70.3018L97.9103 64.9208L100.872 67.237Z" fill="#120D0D"/>
<path d="M110.55 64.8972L100.872 67.237L97.9103 64.9208L108.392 62.5788L110.55 64.8972Z" fill="#E7E4E5"/>
<path d="M99.1517 75.175L102.522 69.3088L100.872 67.237L97.2698 72.7153L99.1517 75.175Z" fill="#E7E4E5"/>
<path d="M113.443 68.004L102.522 69.3088L100.872 67.237L110.55 64.8972L113.443 68.004Z" fill="#E7E4E5"/>
<path d="M104.525 71.4884L102.424 79.4517L99.1517 75.175L102.522 69.3088L104.525 71.4884Z" fill="#E7E4E5"/>
<path d="M115.511 70.2378L112.238 68.1349L113.443 68.004L115.511 70.2378Z" fill="#E7E4E5"/>
<path d="M104.525 71.4884L102.522 69.3088L112.238 68.1349L115.511 70.2378L104.525 71.4884Z" fill="#A0222A"/>
<path d="M106.443 74.2846L103.925 81.4129L102.424 79.4517L104.525 71.4884L106.443 74.2846Z" fill="#A0222A"/>
<path d="M117.325 72.8814L106.443 74.2846L104.525 71.4884L115.511 70.2378L117.325 72.8814Z" fill="#E7E4E5"/>
<path d="M109.638 77.0133L106.814 84.9003L103.925 81.4129L106.443 74.2846L109.638 77.0133Z" fill="#E7E4E5"/>
<path d="M119.653 75.4813L109.638 77.0133L106.443 74.2846L117.325 72.8814L119.653 75.4813Z" fill="#A0222A"/>
<path d="M112.142 80.3299L109.319 88.2168L106.814 84.9003L109.638 77.0133L112.142 80.3299Z" fill="#A0222A"/>
<path d="M122.817 79.2874L112.142 80.3299L109.638 77.0133L119.653 75.4813L122.817 79.2874Z" fill="#E7E4E5"/>
<path d="M116.5 85.3492L113.19 93.5225L109.319 88.2168L112.142 80.3299L116.5 85.3492Z" fill="#E7E4E5"/>
<path d="M127.006 84.3225L116.5 85.3492L112.142 80.3299L122.817 79.2874L127.006 84.3225Z" fill="#E7E4E5"/>
<path d="M119.611 89.3962L116.756 98.1837L113.19 93.5225L116.5 85.3492L119.611 89.3962Z" fill="#E7E4E5"/>
<path d="M131.175 89.3348L119.611 89.3962L116.5 85.3492L127.006 84.3225L131.175 89.3348Z" fill="#E7E4E5"/>
<path d="M122.921 93.954L120.493 103.067L116.756 98.1837L119.611 89.3962L122.921 93.954Z" fill="#E7E4E5"/>
<path d="M135.788 94.882L122.921 93.954L119.611 89.3962L131.175 89.3348L135.788 94.882Z" fill="#E7E4E5"/>
<path d="M135.12 110.247L137.444 101.874L130.799 101.856L129.961 105.635L130.309 109.237L135.12 110.247Z" fill="#120D0D"/>
<path d="M122.921 93.954L130.799 101.856L129.961 105.635L120.493 103.067L122.921 93.954Z" fill="#E7E4E5"/>
<path d="M137.444 101.874L130.799 101.856L122.921 93.954L135.788 94.882L138.759 98.4551L137.444 101.874Z" fill="#A0222A"/>
<path d="M120.493 103.067L124.237 107.961L130.309 109.237L129.961 105.635L120.493 103.067Z" fill="#A0222A"/>
</g>
<defs>
<clipPath id="clip0_302_180">
<rect width="142.667" height="142.667" fill="white"/>
</clipPath>
</defs>
</svg>
