<svg width="54" height="42" viewBox="0 0 54 42" fill="none" xmlns="http://www.w3.org/2000/svg">
<g clip-path="url(#clip0_32_114)">
<rect width="54" height="42" fill="white"/>
<path d="M17.1238 16.9314L22.3799 15.9442L25.3915 23.1318L24.3236 23.8644L19.5562 25.5639L17.3781 23.9154L17.1238 16.9314Z" fill="#A0222A"/>
<path d="M12.3232 13.241L17.1238 16.9314L22.3799 15.9442L28.345 8.35969L12.3232 13.241Z" fill="#120D0D"/>
<path d="M21.7744 33.1212L11.3799 26.1101L12.3232 13.241L17.1238 16.9314L17.3781 23.9154L19.5562 25.5639L21.7744 33.1212Z" fill="#937056"/>
<path d="M34.4365 30.7195L21.7744 33.1212L19.5562 25.5639L24.3236 23.8644L34.4365 30.7195Z" fill="#E7E4E5"/>
<path d="M25.3915 23.1318L38.9224 28.864L34.4365 30.7195L24.3236 23.8644L25.3915 23.1318Z" fill="#A0222A"/>
<path d="M28.345 8.35969L42.7276 15.079L43.2404 23.4571L38.9224 28.864L25.3915 23.1318L22.3799 15.9442L28.345 8.35969Z" fill="#937056"/>
<path d="M-3.059 15.2391L2.12166 9.18448L7.2089 12.9086L5.55064 20.1573L-1.68506 19.943L-3.059 15.2391Z" fill="#937056"/>
<path d="M11.7629 20.8817L12.3232 13.241L7.2089 12.9086L5.55064 20.1573L11.7629 20.8817Z" fill="#A0222A"/>
<path d="M5.66544 5.06304L12.3575 6.93192L28.345 8.35969L12.3232 13.241L7.2089 12.9086L2.12166 9.18448L5.66544 5.06304Z" fill="#E7E4E5"/>
<path d="M9.2413 0.863732L14.6992 1.62559L12.3575 6.93192L5.66544 5.06304L9.2413 0.863732Z" fill="#A0222A"/>
<path d="M28.0419 -7.14275L34.461 -2.82033L14.6992 1.62559L9.2413 0.863732L28.0419 -7.14275Z" fill="#E7E4E5"/>
<path d="M38.9047 -7.78963L45.5722 -2.31415L34.461 -2.82033L28.0419 -7.14275L38.9047 -7.78963Z" fill="#937056"/>
<path d="M44.1495 5.97235L36.3239 3.75857L34.461 -2.82033L45.5722 -2.31415L44.1495 5.97235Z" fill="#A0222A"/>
<path d="M59.5835 16.9813L55.7789 17.8229L44.1495 5.97235L45.5722 -2.31415L59.5835 16.9813Z" fill="#937056"/>
<path d="M51.1027 20.5073L42.7276 15.079L44.1495 5.97235L55.7789 17.8229L51.1027 20.5073Z" fill="#A0222A"/>
<path d="M65.3298 25.3568L60.958 24.7281L55.7789 17.8229L59.5835 16.9813L65.3298 25.3568Z" fill="#120D0D"/>
<path d="M51.1027 20.5073L55.7789 17.8229L60.958 24.7281L57.3183 26.3697L51.1027 20.5073Z" fill="#937056"/>
<path d="M43.2404 23.4571L57.3183 26.3697L51.1027 20.5073L42.7276 15.079L43.2404 23.4571Z" fill="#120D0D"/>
<path d="M77.2038 42.1832L60.958 24.7281L65.3298 25.3568L77.2038 42.1832Z" fill="#A0222A"/>
<path d="M38.9224 28.864L46.2614 31.396L57.3183 26.3697L43.2404 23.4571L38.9224 28.864Z" fill="#A0222A"/>
<path d="M58.3469 33.5209L48.7095 35.2441L46.2614 31.396L57.3183 26.3697L58.3469 33.5209Z" fill="#937056"/>
<path d="M61.3816 35.4895L58.3469 33.5209L57.3183 26.3697L60.958 24.7281L68.0903 32.5752L61.3816 35.4895Z" fill="#120D0D"/>
<path d="M-1.18982 21.639L-1.68506 19.943L11.7629 20.8817L11.3799 26.1101L21.7744 33.1212L11.3141 33.9249L-1.18982 21.639Z" fill="#120D0D"/>
<path d="M8.33336 38.6762L4.75607 42.0035L-0.978357 22.3669L11.3141 33.9249L8.33336 38.6762Z" fill="#A0222A"/>
<path d="M17.8455 43.6736L4.75607 42.0035L8.33336 38.6762L17.8455 43.6736Z" fill="#937056"/>
<path d="M25.8799 40.3439L17.8455 43.6736L8.33336 38.6762L11.3141 33.9249L21.7744 33.1212L25.8799 40.3439Z" fill="#E7E4E5"/>
<path d="M48.7095 35.2441L25.8799 40.3439L21.7744 33.1212L34.4365 30.7195L38.9224 28.864L46.2614 31.396L48.7095 35.2441Z" fill="#120D0D"/>
<path d="M36.3239 3.75857L34.461 -2.82033L14.6992 1.62559L12.3575 6.93192L28.345 8.35969L42.7276 15.079L44.1495 5.97235L36.3239 3.75857Z" fill="#120D0D"/>
<path d="M48.7095 35.2441L58.3469 33.5209L61.3816 35.4895L52.1314 36.4163L48.7095 35.2441Z" fill="#A0222A"/>
<path d="M63.1988 37.4921L60.2323 40.0843L52.1314 36.4163L61.3816 35.4895L63.1988 37.4921Z" fill="#937056"/>
<path d="M69.5348 33.943L63.1988 37.4921L61.3816 35.4895L68.0903 32.5752L69.5348 33.943Z" fill="#E7E4E5"/>
<path d="M63.7991 38.161L61.9022 42.2665L60.2323 40.0843L63.1988 37.4921L63.7991 38.161Z" fill="#A0222A"/>
<path d="M71.7961 36.3742L63.7991 38.161L63.1988 37.4921L69.5348 33.943L71.7961 36.3742Z" fill="#937056"/>
<path d="M66.0586 39.9282L63.3104 44.1079L61.9022 42.2665L63.7991 38.161L66.0586 39.9282Z" fill="#120D0D"/>
<path d="M73.4424 38.143L66.0586 39.9282L63.7991 38.161L71.7961 36.3742L73.4424 38.143Z" fill="#E7E4E5"/>
<path d="M64.7462 45.9845L67.3176 41.5088L66.0586 39.9282L63.3104 44.1079L64.7462 45.9845Z" fill="#E7E4E5"/>
<path d="M75.6498 40.5133L67.3176 41.5088L66.0586 39.9282L73.4424 38.143L75.6498 40.5133Z" fill="#937056"/>
<path d="M68.8459 43.1718L67.2432 49.2474L64.7462 45.9845L67.3176 41.5088L68.8459 43.1718Z" fill="#937056"/>
<path d="M77.2274 42.2176L74.7306 40.6132L75.6498 40.5133L77.2274 42.2176Z" fill="#E7E4E5"/>
<path d="M68.8459 43.1718L67.3176 41.5088L74.7306 40.6132L77.2274 42.2176L68.8459 43.1718Z" fill="#A0222A"/>
<path d="M70.3095 45.3051L68.3884 50.7437L67.2432 49.2474L68.8459 43.1718L70.3095 45.3051Z" fill="#A0222A"/>
<path d="M78.6113 44.2346L70.3095 45.3051L68.8459 43.1718L77.2274 42.2176L78.6113 44.2346Z" fill="#937056"/>
<path d="M72.7466 47.387L70.5926 53.4044L68.3884 50.7437L70.3095 45.3051L72.7466 47.387Z" fill="#937056"/>
<path d="M80.3875 46.2181L72.7466 47.387L70.3095 45.3051L78.6113 44.2346L80.3875 46.2181Z" fill="#A0222A"/>
<path d="M74.6571 49.9174L72.5031 55.9348L70.5926 53.4044L72.7466 47.387L74.6571 49.9174Z" fill="#A0222A"/>
<path d="M82.8021 49.122L74.6571 49.9174L72.7466 47.387L80.3875 46.2181L82.8021 49.122Z" fill="#937056"/>
<path d="M77.9825 53.7469L75.4566 59.9827L72.5031 55.9348L74.6571 49.9174L77.9825 53.7469Z" fill="#937056"/>
<path d="M85.9979 52.9636L77.9825 53.7469L74.6571 49.9174L82.8021 49.122L85.9979 52.9636Z" fill="#E7E4E5"/>
<path d="M80.3557 56.8346L78.1775 63.539L75.4566 59.9827L77.9825 53.7469L80.3557 56.8346Z" fill="#E7E4E5"/>
<path d="M89.1783 56.7878L80.3557 56.8346L77.9825 53.7469L85.9979 52.9636L89.1783 56.7878Z" fill="#937056"/>
<path d="M82.8811 60.312L81.0284 67.2645L78.1775 63.539L80.3557 56.8346L82.8811 60.312Z" fill="#937056"/>
<path d="M92.6979 61.02L82.8811 60.312L80.3557 56.8346L89.1783 56.7878L92.6979 61.02Z" fill="#E7E4E5"/>
<path d="M92.1881 72.7431L93.9619 66.3546L88.8918 66.3411L88.2522 69.2243L88.5178 71.9718L92.1881 72.7431Z" fill="#120D0D"/>
<path d="M82.8811 60.312L88.8918 66.3411L88.2522 69.2243L81.0284 67.2645L82.8811 60.312Z" fill="#E7E4E5"/>
<path d="M93.9619 66.3546L88.8918 66.3411L82.8811 60.312L92.6979 61.02L94.9644 63.7461L93.9619 66.3546Z" fill="#A0222A"/>
<path d="M81.0284 67.2645L83.885 70.9983L88.5178 71.9718L88.2522 69.2243L81.0284 67.2645Z" fill="#A0222A"/>
</g>
<defs>
<clipPath id="clip0_32_114">
<rect width="54" height="42" fill="white"/>
</clipPath>
</defs>
</svg>
