<svg width="54" height="42" viewBox="0 0 54 42" fill="none" xmlns="http://www.w3.org/2000/svg">
<g clip-path="url(#clip0_32_114)">
<rect width="54" height="42" fill="white"/>
<rect y="29" width="3" height="54" transform="rotate(-90 0 29)" fill="#E7E4E5"/>
<rect y="16" width="3" height="54" transform="rotate(-90 0 16)" fill="#E7E4E5"/>
<rect y="42" width="4" height="54" transform="rotate(-90 0 42)" fill="#937056"/>
<rect y="13" width="4" height="54" transform="rotate(-90 0 13)" fill="#937056"/>
<rect y="22" width="6" height="54" transform="rotate(-90 0 22)" fill="#A0222A"/>
<rect y="4" width="4" height="54" transform="rotate(-90 0 4)" fill="#A0222A"/>
<rect y="33" width="4" height="54" transform="rotate(-90 0 33)" fill="#A0222A"/>
<rect y="26" width="4" height="54" transform="rotate(-90 0 26)" fill="#120D0D"/>
<rect y="38" width="5" height="54" transform="rotate(-90 0 38)" fill="#120D0D"/>
<rect y="9" width="5" height="54" transform="rotate(-90 0 9)" fill="#120D0D"/>
</g>
<defs>
<clipPath id="clip0_32_114">
<rect width="54" height="42" fill="white"/>
</clipPath>
</defs>
</svg>
